# xmcd
#
# Track frame offsets: 
#        150
#        17227
#        41109
#        49759
#        70677
#        95297
#        116457
#        135465
#        149777
#        164717
#        187471
#        210465
#        229034
#        245796
#        266884
#        291786
#
# Disc length: 4186 seconds
#
# Revision: 0
# Processed by: cddbd v1.5.2PL0 Copyright (c) Steve Scherf et al.
# Submitted via: ExactAudioCopyFreeDBPlugin 1.0
#
DISCID=00105810
DTITLE=群星 - stereo 试机4号
DYEAR=2009
DGENRE=Acid
TTITLE0=试机四号《英雄》序曲
TTITLE1=牵手
TTITLE2=流浪者之歌
TTITLE3=今夜情为证
TTITLE4=三峡
TTITLE5=天边
TTITLE6=北京喜讯传边寨
TTITLE7=阿淘的歌
TTITLE8=月亮代表我的心
TTITLE9=痴痴的等
TTITLE10=鼓动心弦
TTITLE11=初次尝到寂寞
TTITLE12=吻别
TTITLE13=但愿人长久
TTITLE14=坐上火车去拉萨
TTITLE15=迈克尔·杰克逊
EXTD=
EXTT0=
EXTT1=
EXTT2=
EXTT3=
EXTT4=
EXTT5=
EXTT6=
EXTT7=
EXTT8=
EXTT9=
EXTT10=
EXTT11=
EXTT12=
EXTT13=
EXTT14=
EXTT15=
PLAYORDER=
